<?xml version="1.0" encoding="UTF-8"?>
<svg width="47px" height="35px" viewBox="0 0 47 35" version="1.1" xmlns="http://www.w3.org/2000/svg" xmlns:xlink="http://www.w3.org/1999/xlink">
    <!-- Generator: Sketch 57.1 (83088) - https://sketch.com -->
    <title>cloudy</title>
    <desc>Created with Sketch.</desc>
    <g id="Page-1" stroke="none" stroke-width="1" fill="none" fill-rule="evenodd">
        <g id="weather-icons" transform="translate(-170.000000, -550.000000)">
            <g id="cloudy" transform="translate(169.000000, 543.000000)">
                <g id="pictograms/weather/cloudy">
                    <path d="M3.0843,28.08105 C2.9058,28.08105 2.7333,27.99255 2.6298,27.83205 C1.8903,26.68305 1.5003,25.34805 1.5003,23.96805 C1.5003,20.04705 4.6743,16.85655 8.5758,16.85655 C9.5418,16.85655 10.4988,17.05605 11.3853,17.43855 C12.2988,11.72055 17.2053,7.49955 23.1003,7.49955 C27.8643,7.49955 32.0748,10.26105 33.9633,14.57655 C34.6923,14.37555 35.4363,14.27355 36.1788,14.27355 C40.8123,14.27355 44.5818,18.04455 44.5818,22.67655 C44.5818,22.97655 44.3403,23.21805 44.0418,23.21805 C43.7433,23.21805 43.5018,22.97655 43.5018,22.67655 C43.5018,18.63855 40.2168,15.35505 36.1788,15.35505 C35.3883,15.35505 34.5963,15.48705 33.8253,15.74805 C33.5523,15.83805 33.2538,15.70155 33.1488,15.43305 C31.5288,11.27055 27.5838,8.58105 23.1003,8.58105 C17.5038,8.58105 12.8883,12.76455 12.3633,18.31155 C12.3453,18.49305 12.2373,18.65505 12.0738,18.73905 C11.9103,18.82455 11.7168,18.81855 11.5563,18.73005 C10.6488,18.21105 9.6168,17.93655 8.5758,17.93655 C5.2698,17.93655 2.5803,20.64255 2.5803,23.96805 C2.5803,25.13955 2.9118,26.27355 3.5373,27.24855 C3.6993,27.49905 3.6258,27.83355 3.3753,27.99405 C3.2853,28.05255 3.1833,28.08105 3.0843,28.08105" id="Fill-5" fill="#D0B0FF"></path>
                    <path d="M11.5752,28.437 C8.2692,28.437 5.5797,31.143 5.5797,34.4685 C5.5797,37.794 8.2692,40.5 11.5752,40.5 L39.1782,40.5 C43.2162,40.5 46.5027,37.2165 46.5027,33.177 C46.5027,29.139 43.2162,25.854 39.1782,25.854 C38.3877,25.854 37.5972,25.986 36.8247,26.2485 C36.5532,26.337 36.2532,26.2035 36.1482,25.9335 C34.5282,21.771 30.5832,19.0815 26.0997,19.0815 C20.5032,19.0815 15.8877,23.265 15.3627,28.812 C15.3447,28.9935 15.2367,29.1555 15.0747,29.2395 C14.9097,29.325 14.7162,29.319 14.5572,29.229 C13.6482,28.7115 12.6177,28.437 11.5752,28.437 M39.1782,41.5815 L11.5752,41.5815 C7.6737,41.5815 4.4997,38.3895 4.4997,34.4685 C4.4997,30.546 7.6737,27.3555 11.5752,27.3555 C12.5412,27.3555 13.4997,27.5565 14.3862,27.939 C15.2982,22.2195 20.2047,18 26.0997,18 C30.8637,18 35.0742,20.7615 36.9627,25.077 C37.6932,24.876 38.4357,24.774 39.1782,24.774 C43.8117,24.774 47.5812,28.5435 47.5812,33.177 C47.5812,37.8105 43.8117,41.5815 39.1782,41.5815" id="Fill-1" fill="#FFA4A9"></path>
                </g>
            </g>
        </g>
    </g>
</svg>