<?xml version="1.0" encoding="UTF-8"?>
<svg width="47px" height="38px" viewBox="0 0 47 38" version="1.1" xmlns="http://www.w3.org/2000/svg" xmlns:xlink="http://www.w3.org/1999/xlink">
    <!-- Generator: Sketch 57.1 (83088) - https://sketch.com -->
    <title>fog</title>
    <desc>Created with Sketch.</desc>
    <g id="Page-1" stroke="none" stroke-width="1" fill="none" fill-rule="evenodd">
        <g id="weather-icons" transform="translate(-100.000000, -1101.000000)" fill="#FFA0C2">
            <g id="fog" transform="translate(99.000000, 1097.000000)">
                <g id="pictograms/weather/foggy">
                    <path d="M36.54195,40.49955 C36.84045,40.49955 37.08195,40.74105 37.08195,41.04105 C37.08195,41.33955 36.84045,41.58105 36.54195,41.58105 L18.54195,41.58105 C18.24345,41.58105 18.00195,41.33955 18.00195,41.04105 C18.00195,40.74105 18.24345,40.49955 18.54195,40.49955 L36.54195,40.49955 Z M42.54195,34.49955 C42.84045,34.49955 43.08195,34.74105 43.08195,35.04105 C43.08195,35.33955 42.84045,35.58105 42.54195,35.58105 L21.54195,35.58105 C21.24345,35.58105 21.00195,35.33955 21.00195,35.04105 C21.00195,34.74105 21.24345,34.49955 21.54195,34.49955 L42.54195,34.49955 Z M12.54195,34.49955 C12.84045,34.49955 13.08195,34.74105 13.08195,35.04105 C13.08195,35.33955 12.84045,35.58105 12.54195,35.58105 L2.04195,35.58105 C1.74345,35.58105 1.50195,35.33955 1.50195,35.04105 C1.50195,34.74105 1.74345,34.49955 2.04195,34.49955 L12.54195,34.49955 Z M24.4308,4.49955 C29.3523,4.49955 33.9273,7.62855 35.9628,12.33405 C36.8628,12.10605 37.9278,11.99955 38.6793,11.99955 C43.5873,11.99955 47.5803,15.99255 47.5803,20.90055 C47.5803,21.19905 47.3388,21.44055 47.0403,21.44055 C46.7418,21.44055 46.5003,21.19905 46.5003,20.90055 C46.5003,16.58805 42.9918,13.08105 38.6793,13.08105 C37.7283,13.08105 36.5523,13.25205 35.8218,13.49955 C35.5473,13.59255 35.2503,13.45455 35.1438,13.18455 C33.3753,8.63655 29.0688,5.58105 24.4308,5.58105 C18.6873,5.58105 13.5498,10.48455 12.9783,16.51005 C12.9603,16.69155 12.8523,16.85355 12.6903,16.93755 C12.5268,17.02305 12.3318,17.01705 12.1728,16.92705 C11.2023,16.37355 10.0998,16.08105 8.9868,16.08105 C5.4558,16.08105 2.5803,18.97305 2.5803,22.52805 C2.5803,25.94055 5.2773,28.45305 8.9943,28.49955 C9.2913,28.50405 9.5298,28.74855 9.5268,29.04855 C9.5223,29.34405 9.2808,29.58105 8.9868,29.58105 L8.9793,29.58105 C4.6458,29.52405 1.5003,26.55855 1.5003,22.52805 C1.5003,18.37755 4.8588,14.99955 8.9868,14.99955 C10.0233,14.99955 11.0508,15.21855 12.0003,15.63405 C12.9723,9.42705 18.3948,4.49955 24.4308,4.49955 Z M36.54195,28.49955 C36.84045,28.49955 37.08195,28.74105 37.08195,29.04105 C37.08195,29.33955 36.84045,29.58105 36.54195,29.58105 L14.04195,29.58105 C13.74345,29.58105 13.50195,29.33955 13.50195,29.04105 C13.50195,28.74105 13.74345,28.49955 14.04195,28.49955 L36.54195,28.49955 Z M42.54195,22.49955 C42.84045,22.49955 43.08195,22.74105 43.08195,23.04105 C43.08195,23.33955 42.84045,23.58105 42.54195,23.58105 L21.54195,23.58105 C21.24345,23.58105 21.00195,23.33955 21.00195,23.04105 C21.00195,22.74105 21.24345,22.49955 21.54195,22.49955 L42.54195,22.49955 Z" id="Fill-13"></path>
                </g>
            </g>
        </g>
    </g>
</svg>