<?xml version="1.0" encoding="UTF-8"?>
<svg width="47px" height="30px" viewBox="0 0 47 30" version="1.1" xmlns="http://www.w3.org/2000/svg" xmlns:xlink="http://www.w3.org/1999/xlink">
    <!-- Generator: Sketch 57.1 (83088) - https://sketch.com -->
    <title>partly-cloudy-day</title>
    <desc>Created with Sketch.</desc>
    <g id="Page-1" stroke="none" stroke-width="1" fill="none" fill-rule="evenodd">
        <g id="weather-icons" transform="translate(-378.000000, -330.000000)">
            <g id="partly-cloudy-day" transform="translate(377.000000, 320.000000)">
                <g id="pictograms/weather/partly-cloudy">
                    <path d="M4.3572,23.5059 C4.6557,23.5059 4.8972,23.7474 4.8972,24.0474 C4.8972,24.3459 4.6557,24.5874 4.3572,24.5874 L2.0397,24.5874 C1.7412,24.5874 1.4997,24.3459 1.4997,24.0474 C1.4997,23.7474 1.7412,23.5059 2.0397,23.5059 L4.3572,23.5059 Z M15.0462,15.6309 C15.9972,15.6309 16.8672,15.6624 17.8632,16.0419 C18.1422,16.1484 18.2817,16.4604 18.1752,16.7394 C18.0702,17.0169 17.7597,17.1549 17.4792,17.0529 C16.7247,16.7649 16.0677,16.7124 15.0462,16.7124 C11.0007,16.7124 7.7112,20.0019 7.7112,24.0474 C7.7112,24.3459 7.4697,24.5874 7.1712,24.5874 C6.8727,24.5874 6.6312,24.3459 6.6312,24.0474 C6.6312,19.4064 10.4052,15.6309 15.0462,15.6309 Z M4.05285,17.07765 L6.05985,18.23565 C6.31785,18.38565 6.40635,18.71415 6.25635,18.97215 C6.15735,19.14765 5.97585,19.24365 5.78835,19.24365 C5.69685,19.24365 5.60385,19.21965 5.51835,19.17015 L3.51135,18.01215 C3.25485,17.86215 3.16485,17.53215 3.31485,17.27565 C3.46335,17.01465 3.79335,16.92465 4.05285,17.07765 Z M21.8187,12.31605 C22.0767,12.46605 22.1652,12.79605 22.0167,13.05255 L20.8572,15.05955 C20.7582,15.23505 20.5767,15.33105 20.3892,15.33105 C20.2977,15.33105 20.2047,15.30705 20.1192,15.25755 C19.8612,15.10905 19.7727,14.77905 19.9212,14.52105 L21.0807,12.51405 C21.2307,12.25455 21.5607,12.16455 21.8187,12.31605 Z M9.01095,12.51405 L10.17045,14.52105 C10.31895,14.77905 10.23045,15.10905 9.97245,15.25755 C9.88695,15.30705 9.79395,15.33105 9.70245,15.33105 C9.51495,15.33105 9.33345,15.23505 9.23445,15.05955 L8.07495,13.05255 C7.92645,12.79605 8.01495,12.46605 8.27295,12.31605 C8.53095,12.16455 8.86095,12.25455 9.01095,12.51405 Z M15.04545,10.4994 C15.34395,10.4994 15.58545,10.7424 15.58545,11.0409 L15.58545,13.3584 C15.58545,13.6569 15.34395,13.8984 15.04545,13.8984 C14.74695,13.8984 14.50545,13.6569 14.50545,13.3584 L14.50545,11.0409 C14.50545,10.7424 14.74695,10.4994 15.04545,10.4994 Z" id="Fill-11" fill="#FDD13A"></path>
                    <path d="M11.60745,26.41545 C8.30145,26.41545 5.61345,29.12145 5.61345,32.44695 C5.61345,35.77245 8.30145,38.47845 11.60745,38.47845 L39.21045,38.47845 C43.24845,38.47845 46.53345,35.19495 46.53345,31.15545 C46.53345,27.11745 43.24845,23.83245 39.21045,23.83245 C38.41845,23.83245 37.62645,23.96445 36.85695,24.22545 C36.58545,24.31395 36.28545,24.18045 36.18045,23.91045 C34.56045,19.74945 30.61695,17.05995 26.13195,17.05995 C20.53545,17.05995 15.91995,21.24195 15.39495,26.78895 C15.37695,26.97045 15.26895,27.13245 15.10695,27.21645 C14.94345,27.30345 14.74995,27.30045 14.58945,27.20595 C13.68045,26.68995 12.64845,26.41545 11.60745,26.41545 M39.21045,39.55995 L11.60745,39.55995 C7.70595,39.55995 4.53345,36.36795 4.53345,32.44695 C4.53345,28.52445 7.70595,25.33395 11.60745,25.33395 C12.57345,25.33395 13.53045,25.53495 14.41845,25.91595 C15.33045,20.19795 20.23695,15.97845 26.13195,15.97845 C30.89595,15.97845 35.10645,18.73995 36.99495,23.05395 C37.72245,22.85445 38.46645,22.75245 39.21045,22.75245 C43.84395,22.75245 47.61345,26.52195 47.61345,31.15545 C47.61345,35.78895 43.84395,39.55995 39.21045,39.55995" id="Fill-15" fill="#20D5D2"></path>
                </g>
            </g>
        </g>
    </g>
</svg>