<?xml version="1.0" encoding="UTF-8"?>
<svg width="47px" height="41px" viewBox="0 0 47 41" version="1.1" xmlns="http://www.w3.org/2000/svg" xmlns:xlink="http://www.w3.org/1999/xlink">
    <!-- Generator: Sketch 57.1 (83088) - https://sketch.com -->
    <title>rain</title>
    <desc>Created with Sketch.</desc>
    <g id="Page-1" stroke="none" stroke-width="1" fill="none" fill-rule="evenodd">
        <g id="weather-icons" transform="translate(-116.000000, -661.000000)">
            <g id="rain" transform="translate(115.000000, 657.000000)">
                <g id="pictograms/weather/rain-01">
                    <path d="M23.07465,34.5738 C23.38515,34.7538 23.49165,35.1498 23.31165,35.4603 L18.05865,44.5413 C17.93865,44.7498 17.71965,44.8653 17.49615,44.8653 C17.38515,44.8653 17.27415,44.8368 17.17215,44.7783 C16.86165,44.5983 16.75515,44.2023 16.93365,43.8918 L22.18665,34.8108 C22.36815,34.4988 22.76415,34.3953 23.07465,34.5738 Z M36.8127,34.5738 C37.1232,34.7538 37.2297,35.1498 37.0497,35.4603 L31.7967,44.5413 C31.6767,44.7498 31.4577,44.8653 31.2342,44.8653 C31.1232,44.8653 31.0122,44.8368 30.9102,44.7783 C30.5997,44.5983 30.4932,44.2023 30.6717,43.8918 L35.9247,34.8108 C36.1047,34.4988 36.5022,34.3953 36.8127,34.5738 Z M16.20735,34.5726 C16.51785,34.7526 16.62435,35.1501 16.44435,35.4606 L13.19385,41.0901 C13.07385,41.2986 12.85635,41.4141 12.63135,41.4141 C12.52185,41.4141 12.40935,41.3856 12.30735,41.3271 C11.99685,41.1486 11.89035,40.7511 12.06885,40.4406 L15.31935,34.8111 C15.49935,34.5021 15.89835,34.3941 16.20735,34.5726 Z M29.94315,34.5726 C30.25365,34.7541 30.36015,35.1501 30.18015,35.4606 L26.92815,41.0901 C26.80815,41.2986 26.59065,41.4141 26.36565,41.4141 C26.25615,41.4141 26.14365,41.3856 26.04165,41.3271 C25.73115,41.1471 25.62465,40.7511 25.80315,40.4406 L29.05515,34.8111 C29.23515,34.5021 29.63115,34.3941 29.94315,34.5726 Z" id="Fill-11" fill="#20D5D2"></path>
                    <path d="M9.08865,15.70755 C5.62065,15.70755 2.79915,18.53055 2.79915,21.99705 C2.79915,25.46655 5.62065,28.28805 9.08865,28.28805 L38.23515,28.28805 C42.45465,28.28805 45.88665,24.85455 45.88665,20.63355 C45.88665,16.41555 42.45465,12.98205 38.23515,12.98205 C37.40715,12.98205 36.57915,13.12005 35.77515,13.39305 C35.44065,13.50555 35.08815,13.33755 34.96215,13.01355 C33.25515,8.63055 29.11965,5.79855 24.42615,5.79855 C18.55965,5.79855 13.71915,10.19805 13.16715,16.03305 C13.14615,16.25205 13.01565,16.44555 12.81915,16.54905 C12.62415,16.65105 12.39015,16.64505 12.19815,16.53555 C11.25015,15.99405 10.17615,15.70755 9.08865,15.70755 M38.23515,29.58555 L9.08865,29.58555 C4.90365,29.58555 1.50015,26.18055 1.50015,21.99705 C1.50015,17.81355 4.90365,14.41005 9.08865,14.41005 C10.08615,14.41005 11.07465,14.60955 11.99415,14.99055 C13.00665,8.94705 18.19665,4.49955 24.42615,4.49955 C29.45715,4.49955 33.91365,7.41855 35.94015,11.98755 C36.69465,11.78505 37.46415,11.68305 38.23515,11.68305 C43.17015,11.68305 47.18565,15.69855 47.18565,20.63355 C47.18565,25.57005 43.17015,29.58555 38.23515,29.58555" id="Fill-1" fill="#97C1FF"></path>
                </g>
            </g>
        </g>
    </g>
</svg>