<?xml version="1.0" encoding="UTF-8"?>
<svg width="47px" height="43px" viewBox="0 0 47 43" version="1.1" xmlns="http://www.w3.org/2000/svg" xmlns:xlink="http://www.w3.org/1999/xlink">
    <!-- Generator: Sketch 57.1 (83088) - https://sketch.com -->
    <title>sleet</title>
    <desc>Created with Sketch.</desc>
    <g id="Page-1" stroke="none" stroke-width="1" fill="none" fill-rule="evenodd">
        <g id="weather-icons" transform="translate(-132.000000, -760.000000)" fill="#FFA4A9">
            <g id="sleet" transform="translate(131.000000, 757.000000)">
                <g id="pictograms/weather/hail-01">
                    <path d="M10.5606,42.27435 C10.8186,42.42285 10.9071,42.75285 10.7571,43.01085 L9.2571,45.60885 C9.1581,45.78435 8.9766,45.88035 8.7891,45.88035 C8.6976,45.88035 8.6046,45.85635 8.5191,45.80685 C8.2611,45.65835 8.1726,45.32835 8.3211,45.07035 L9.8211,42.47235 C9.9726,42.21135 10.2981,42.12285 10.5606,42.27435 Z M23.3106,42.27435 C23.5686,42.42285 23.6571,42.75285 23.5071,43.01085 L22.0071,45.60885 C21.9081,45.78435 21.7266,45.88035 21.5391,45.88035 C21.4476,45.88035 21.3546,45.85635 21.2691,45.80685 C21.0111,45.65835 20.9226,45.32835 21.0711,45.07035 L22.5711,42.47235 C22.7211,42.21135 23.0496,42.12285 23.3106,42.27435 Z M16.28985,42.54045 C17.11785,42.54045 17.78985,43.21245 17.78985,44.04045 C17.78985,44.86995 17.11785,45.54045 16.28985,45.54045 C15.46185,45.54045 14.78985,44.86995 14.78985,44.04045 C14.78985,43.21245 15.46185,42.54045 16.28985,42.54045 Z M29.03985,42.54045 C29.86785,42.54045 30.53985,43.21245 30.53985,44.04045 C30.53985,44.86995 29.86785,45.54045 29.03985,45.54045 C28.21185,45.54045 27.53985,44.86995 27.53985,44.04045 C27.53985,43.21245 28.21185,42.54045 29.03985,42.54045 Z M20.3106,37.02435 C20.5686,37.17285 20.6571,37.50285 20.5071,37.76085 L19.0071,40.35885 C18.9081,40.53435 18.7266,40.63035 18.5391,40.63035 C18.4476,40.63035 18.3546,40.60635 18.2691,40.55685 C18.0111,40.40835 17.9226,40.07835 18.0711,39.82035 L19.5711,37.22235 C19.7211,36.96285 20.0496,36.87285 20.3106,37.02435 Z M33.0606,37.02435 C33.3186,37.17285 33.4071,37.50285 33.2571,37.76085 L31.7571,40.35885 C31.6581,40.53435 31.4766,40.63035 31.2891,40.63035 C31.1976,40.63035 31.1046,40.60635 31.0191,40.55685 C30.7611,40.40835 30.6726,40.07835 30.8211,39.82035 L32.3211,37.22235 C32.4711,36.96285 32.8011,36.87285 33.0606,37.02435 Z M12.53985,37.29045 C13.36785,37.29045 14.03985,37.96245 14.03985,38.79045 C14.03985,39.61995 13.36785,40.29045 12.53985,40.29045 C11.71185,40.29045 11.03985,39.61995 11.03985,38.79045 C11.03985,37.96245 11.71185,37.29045 12.53985,37.29045 Z M25.28985,37.29045 C26.11785,37.29045 26.78985,37.96245 26.78985,38.79045 C26.78985,39.61995 26.11785,40.29045 25.28985,40.29045 C24.46185,40.29045 23.78985,39.61995 23.78985,38.79045 C23.78985,37.96245 24.46185,37.29045 25.28985,37.29045 Z M16.5606,31.77435 C16.8186,31.92285 16.9071,32.25285 16.7571,32.51085 L15.2571,35.10885 C15.1581,35.28435 14.9766,35.38035 14.7891,35.38035 C14.6976,35.38035 14.6046,35.35635 14.5191,35.30685 C14.2611,35.15835 14.1726,34.82835 14.3211,34.57035 L15.8211,31.97235 C15.9711,31.71285 16.2996,31.62135 16.5606,31.77435 Z M29.3106,31.77435 C29.5686,31.92285 29.6571,32.25285 29.5071,32.51085 L28.0071,35.10885 C27.9081,35.28435 27.7266,35.38035 27.5391,35.38035 C27.4476,35.38035 27.3546,35.35635 27.2691,35.30685 C27.0111,35.15835 26.9226,34.82835 27.0711,34.57035 L28.5711,31.97235 C28.7211,31.71285 29.0481,31.62135 29.3106,31.77435 Z M22.28985,32.04045 C23.11785,32.04045 23.78985,32.71245 23.78985,33.54045 C23.78985,34.36995 23.11785,35.04045 22.28985,35.04045 C21.46185,35.04045 20.78985,34.36995 20.78985,33.54045 C20.78985,32.71245 21.46185,32.04045 22.28985,32.04045 Z M35.03985,32.04045 C35.86785,32.04045 36.53985,32.71245 36.53985,33.54045 C36.53985,34.36995 35.86785,35.04045 35.03985,35.04045 C34.21185,35.04045 33.53985,34.36995 33.53985,33.54045 C33.53985,32.71245 34.21185,32.04045 35.03985,32.04045 Z M24.43005,2.99955 C29.35155,2.99955 33.92655,6.12855 35.96205,10.83555 C36.86055,10.60605 37.92705,10.49955 38.67855,10.49955 C43.58655,10.49955 47.57955,14.49255 47.57955,19.40205 C47.57955,24.21705 43.67355,28.02855 38.68455,28.08105 L8.98605,28.08105 C4.64505,28.02705 1.49955,25.06005 1.49955,21.02955 C1.49955,16.87755 4.85805,13.49955 8.98605,13.49955 C10.02255,13.49955 11.05155,13.71855 12.00105,14.13405 C12.97155,7.92705 18.39405,2.99955 24.43005,2.99955 Z M24.43005,4.08105 C18.68655,4.08105 13.54905,8.98455 12.97905,15.01155 C12.96105,15.19305 12.85305,15.35655 12.68955,15.43905 C12.52605,15.52455 12.33105,15.51855 12.17355,15.42855 C11.20155,14.87355 10.10055,14.58105 8.98605,14.58105 C5.45355,14.58105 2.57955,17.47455 2.57955,21.02955 C2.57955,24.44205 5.27655,26.95455 8.99205,26.99955 L38.67855,26.99955 C43.06155,26.95455 46.49955,23.61555 46.49955,19.40205 C46.49955,15.08955 42.99105,11.58105 38.67855,11.58105 C37.72605,11.58105 36.55155,11.75355 35.82255,12.00105 C35.55105,12.09255 35.24955,11.95605 35.14455,11.68605 C33.37455,7.13655 29.06805,4.08105 24.43005,4.08105 Z" id="Fill-2"></path>
                </g>
            </g>
        </g>
    </g>
</svg>