<?xml version="1.0" encoding="UTF-8"?>
<svg width="47px" height="41px" viewBox="0 0 47 41" version="1.1" xmlns="http://www.w3.org/2000/svg" xmlns:xlink="http://www.w3.org/1999/xlink">
    <!-- Generator: Sketch 57.1 (83088) - https://sketch.com -->
    <title>snow</title>
    <desc>Created with Sketch.</desc>
    <g id="Page-1" stroke="none" stroke-width="1" fill="none" fill-rule="evenodd">
        <g id="weather-icons" transform="translate(-138.000000, -881.000000)" fill="#FFA4A9">
            <g id="snow" transform="translate(137.000000, 877.000000)">
                <g id="pictograms/weather/snow">
                    <path d="M14.0406,40.49955 C14.3391,40.49955 14.5806,40.74105 14.5806,41.04105 L14.5803,41.99855 L15.5406,41.99955 C15.8391,41.99955 16.0806,42.24105 16.0806,42.54105 C16.0806,42.83955 15.8391,43.08105 15.5406,43.08105 L14.5803,43.08055 L14.5806,44.04105 C14.5806,44.33955 14.3391,44.58105 14.0406,44.58105 C13.7421,44.58105 13.5006,44.33955 13.5006,44.04105 L13.5003,43.08055 L12.5406,43.08105 C12.2421,43.08105 12.0006,42.83955 12.0006,42.54105 C12.0006,42.24105 12.2421,41.99955 12.5406,41.99955 L13.5003,41.99855 L13.5006,41.04105 C13.5006,40.74105 13.7421,40.49955 14.0406,40.49955 Z M20.0406,40.49955 C20.3391,40.49955 20.5806,40.74105 20.5806,41.04105 L20.5803,41.99855 L21.5406,41.99955 C21.8391,41.99955 22.0806,42.24105 22.0806,42.54105 C22.0806,42.83955 21.8391,43.08105 21.5406,43.08105 L20.5803,43.08055 L20.5806,44.04105 C20.5806,44.33955 20.3391,44.58105 20.0406,44.58105 C19.7421,44.58105 19.5006,44.33955 19.5006,44.04105 L19.5003,43.08055 L18.5406,43.08105 C18.2421,43.08105 18.0006,42.83955 18.0006,42.54105 C18.0006,42.24105 18.2421,41.99955 18.5406,41.99955 L19.5003,41.99855 L19.5006,41.04105 C19.5006,40.74105 19.7421,40.49955 20.0406,40.49955 Z M26.0406,40.49955 C26.3391,40.49955 26.5806,40.74105 26.5806,41.04105 L26.5803,41.99855 L27.5406,41.99955 C27.8391,41.99955 28.0806,42.24105 28.0806,42.54105 C28.0806,42.83955 27.8391,43.08105 27.5406,43.08105 L26.5803,43.08055 L26.5806,44.04105 C26.5806,44.33955 26.3391,44.58105 26.0406,44.58105 C25.7421,44.58105 25.5006,44.33955 25.5006,44.04105 L25.5003,43.08055 L24.5406,43.08105 C24.2421,43.08105 24.0006,42.83955 24.0006,42.54105 C24.0006,42.24105 24.2421,41.99955 24.5406,41.99955 L25.5003,41.99855 L25.5006,41.04105 C25.5006,40.74105 25.7421,40.49955 26.0406,40.49955 Z M32.0406,40.49955 C32.3391,40.49955 32.5806,40.74105 32.5806,41.04105 L32.5803,41.99855 L33.5406,41.99955 C33.8391,41.99955 34.0806,42.24105 34.0806,42.54105 C34.0806,42.83955 33.8391,43.08105 33.5406,43.08105 L32.5803,43.08055 L32.5806,44.04105 C32.5806,44.33955 32.3391,44.58105 32.0406,44.58105 C31.7421,44.58105 31.5006,44.33955 31.5006,44.04105 L31.5003,43.08055 L30.5406,43.08105 C30.2421,43.08105 30.0006,42.83955 30.0006,42.54105 C30.0006,42.24105 30.2421,41.99955 30.5406,41.99955 L31.5003,41.99855 L31.5006,41.04105 C31.5006,40.74105 31.7421,40.49955 32.0406,40.49955 Z M17.0406,34.49955 C17.3391,34.49955 17.5806,34.74105 17.5806,35.04105 L17.5803,35.99855 L18.5406,35.99955 C18.8391,35.99955 19.0806,36.24105 19.0806,36.54105 C19.0806,36.83955 18.8391,37.08105 18.5406,37.08105 L17.5803,37.08055 L17.5806,38.04105 C17.5806,38.33955 17.3391,38.58105 17.0406,38.58105 C16.7421,38.58105 16.5006,38.33955 16.5006,38.04105 L16.5003,37.08055 L15.5406,37.08105 C15.2421,37.08105 15.0006,36.83955 15.0006,36.54105 C15.0006,36.24105 15.2421,35.99955 15.5406,35.99955 L16.5003,35.99855 L16.5006,35.04105 C16.5006,34.74105 16.7421,34.49955 17.0406,34.49955 Z M23.0406,34.49955 C23.3391,34.49955 23.5806,34.74105 23.5806,35.04105 L23.5803,35.99855 L24.5406,35.99955 C24.8391,35.99955 25.0806,36.24105 25.0806,36.54105 C25.0806,36.83955 24.8391,37.08105 24.5406,37.08105 L23.5803,37.08055 L23.5806,38.04105 C23.5806,38.33955 23.3391,38.58105 23.0406,38.58105 C22.7421,38.58105 22.5006,38.33955 22.5006,38.04105 L22.5003,37.08055 L21.5406,37.08105 C21.2421,37.08105 21.0006,36.83955 21.0006,36.54105 C21.0006,36.24105 21.2421,35.99955 21.5406,35.99955 L22.5003,35.99855 L22.5006,35.04105 C22.5006,34.74105 22.7421,34.49955 23.0406,34.49955 Z M29.0406,34.49955 C29.3391,34.49955 29.5806,34.74105 29.5806,35.04105 L29.5803,35.99855 L30.5406,35.99955 C30.8391,35.99955 31.0806,36.24105 31.0806,36.54105 C31.0806,36.83955 30.8391,37.08105 30.5406,37.08105 L29.5803,37.08055 L29.5806,38.04105 C29.5806,38.33955 29.3391,38.58105 29.0406,38.58105 C28.7421,38.58105 28.5006,38.33955 28.5006,38.04105 L28.5003,37.08055 L27.5406,37.08105 C27.2421,37.08105 27.0006,36.83955 27.0006,36.54105 C27.0006,36.24105 27.2421,35.99955 27.5406,35.99955 L28.5003,35.99855 L28.5006,35.04105 C28.5006,34.74105 28.7421,34.49955 29.0406,34.49955 Z M35.0406,34.49955 C35.3391,34.49955 35.5806,34.74105 35.5806,35.04105 L35.5803,35.99855 L36.5406,35.99955 C36.8391,35.99955 37.0806,36.24105 37.0806,36.54105 C37.0806,36.83955 36.8391,37.08105 36.5406,37.08105 L35.5803,37.08055 L35.5806,38.04105 C35.5806,38.33955 35.3391,38.58105 35.0406,38.58105 C34.7421,38.58105 34.5006,38.33955 34.5006,38.04105 L34.5003,37.08055 L33.5406,37.08105 C33.2421,37.08105 33.0006,36.83955 33.0006,36.54105 C33.0006,36.24105 33.2421,35.99955 33.5406,35.99955 L34.5003,35.99855 L34.5006,35.04105 C34.5006,34.74105 34.7421,34.49955 35.0406,34.49955 Z M24.4308,4.49955 C29.3523,4.49955 33.9288,7.62855 35.9643,12.33405 C36.8628,12.10605 37.9293,11.99955 38.6808,11.99955 C43.5873,11.99955 47.5818,15.99255 47.5818,20.90055 C47.5818,25.71405 43.6743,29.52705 38.6868,29.58105 L8.9883,29.58105 C4.6458,29.52405 1.5003,26.55855 1.5003,22.52805 C1.5003,18.37755 4.8588,14.99955 8.9883,14.99955 C10.0233,14.99955 11.0523,15.21855 12.0018,15.63405 C12.9723,9.42705 18.3948,4.49955 24.4308,4.49955 Z M24.4308,5.58105 C18.6873,5.58105 13.5498,10.48455 12.9798,16.51005 C12.9618,16.69155 12.8538,16.85355 12.6918,16.93755 C12.5283,17.02305 12.3333,17.01705 12.1743,16.92705 C11.2038,16.37355 10.1013,16.08105 8.9883,16.08105 C5.4558,16.08105 2.5818,18.97305 2.5818,22.52805 C2.5818,25.94055 5.2773,28.45305 8.9958,28.49955 L38.6808,28.49955 C43.0638,28.45305 46.5003,25.11405 46.5003,20.90055 C46.5003,16.58805 42.9933,13.08105 38.6808,13.08105 C37.7283,13.08105 36.5538,13.25205 35.8233,13.49955 C35.5503,13.59255 35.2518,13.45305 35.1453,13.18455 C33.3768,8.63655 29.0703,5.58105 24.4308,5.58105 Z" id="Fill-2"></path>
                </g>
            </g>
        </g>
    </g>
</svg>