<?xml version="1.0" encoding="UTF-8"?>
<svg width="47px" height="38px" viewBox="0 0 47 38" version="1.1" xmlns="http://www.w3.org/2000/svg" xmlns:xlink="http://www.w3.org/1999/xlink">
    <!-- Generator: Sketch 57.1 (83088) - https://sketch.com -->
    <title>wind</title>
    <desc>Created with Sketch.</desc>
    <g id="Page-1" stroke="none" stroke-width="1" fill="none" fill-rule="evenodd">
        <g id="weather-icons" transform="translate(-132.000000, -993.000000)" fill="#FFA0C2">
            <g id="wind" transform="translate(131.000000, 987.000000)">
                <g id="pictograms/weather/wind">
                    <path d="M21.53985,29.99955 C25.14585,29.99955 28.07985,32.93355 28.07985,36.54105 C28.07985,40.14705 25.14585,43.08105 21.53985,43.08105 C17.93385,43.08105 14.99985,40.14705 14.99985,36.54105 C14.99985,36.24105 15.24135,35.99955 15.53985,35.99955 C15.83835,35.99955 16.07985,36.24105 16.07985,36.54105 C16.07985,39.55005 18.52935,41.99955 21.53985,41.99955 C24.55035,41.99955 26.99985,39.55005 26.99985,36.54105 C26.99985,33.53055 24.55035,31.08105 21.53985,31.08105 L5.03985,31.08105 C4.74135,31.08105 4.49985,30.83955 4.49985,30.54105 C4.49985,30.24105 4.74135,29.99955 5.03985,29.99955 L21.53985,29.99955 Z M2.03985,25.08105 C1.74135,25.08105 1.49985,24.83955 1.49985,24.54105 C1.49985,24.24105 1.74135,23.99955 2.03985,23.99955 L41.03985,23.99955 L41.03985,23.99955 C44.64585,23.99955 47.57985,26.93355 47.57985,30.54105 C47.57985,34.14705 44.64585,37.08105 41.03985,37.08105 C37.43385,37.08105 34.49985,34.14705 34.49985,30.54105 C34.49985,30.24105 34.74135,29.99955 35.03985,29.99955 C35.33835,29.99955 35.57985,30.24105 35.57985,30.54105 C35.57985,33.55005 38.02935,35.99955 41.03985,35.99955 C44.05035,35.99955 46.49985,33.55005 46.49985,30.54105 C46.49985,27.53055 44.05035,25.08105 41.03985,25.08105 L2.03985,25.08105 Z M32.03985,5.99955 C35.64585,5.99955 38.57985,8.93355 38.57985,12.54105 C38.57985,16.14705 35.64585,19.08105 32.03985,19.08105 L9.53985,19.08105 C9.24135,19.08105 8.99985,18.83955 8.99985,18.54105 C8.99985,18.24105 9.24135,17.99955 9.53985,17.99955 L32.03985,17.99955 C35.05035,17.99955 37.49985,15.55005 37.49985,12.54105 C37.49985,9.53055 35.05035,7.08105 32.03985,7.08105 C29.02935,7.08105 26.57985,9.53055 26.57985,12.54105 C26.57985,12.83955 26.33835,13.08105 26.03985,13.08105 C25.74135,13.08105 25.49985,12.83955 25.49985,12.54105 C25.49985,8.93355 28.43385,5.99955 32.03985,5.99955 Z" id="Fill-2"></path>
                </g>
            </g>
        </g>
    </g>
</svg>