<?xml version="1.0" encoding="UTF-8"?>
<svg width="44px" height="41px" viewBox="0 0 44 41" version="1.1" xmlns="http://www.w3.org/2000/svg" xmlns:xlink="http://www.w3.org/1999/xlink">
    <!-- Generator: Sketch 57.1 (83088) - https://sketch.com -->
    <title>clear-night</title>
    <desc>Created with Sketch.</desc>
    <g id="Page-1" stroke="none" stroke-width="1" fill="none" fill-rule="evenodd">
        <g id="weather-icons" transform="translate(-228.000000, -221.000000)">
            <g id="clear-night" transform="translate(227.000000, 217.000000)">
                <g id="pictograms/weather/night">
                    <path d="M41.04855,25.5084 C41.34705,25.5084 41.58855,25.7499 41.58855,26.0499 L41.58855,28.5084 L44.04855,28.5084 C44.34705,28.5084 44.58855,28.7499 44.58855,29.0499 C44.58855,29.3484 44.34705,29.5899 44.04855,29.5899 L41.58855,29.5894 L41.58855,32.0499 C41.58855,32.3484 41.34705,32.5899 41.04855,32.5899 C40.75005,32.5899 40.50855,32.3484 40.50855,32.0499 L40.50855,29.5894 L38.04855,29.5899 C37.75005,29.5899 37.50855,29.3484 37.50855,29.0499 C37.50855,28.7499 37.75005,28.5084 38.04855,28.5084 L40.50855,28.5084 L40.50855,26.0499 C40.50855,25.7499 40.75005,25.5084 41.04855,25.5084 Z M26.04855,12.0084 C26.34705,12.0084 26.58855,12.2499 26.58855,12.5499 L26.58855,15.0084 L29.04855,15.0084 C29.34705,15.0084 29.58855,15.2499 29.58855,15.5499 C29.58855,15.8484 29.34705,16.0899 29.04855,16.0899 L26.58855,16.0894 L26.58855,18.5499 C26.58855,18.8484 26.34705,19.0899 26.04855,19.0899 C25.75005,19.0899 25.50855,18.8484 25.50855,18.5499 L25.50855,16.0894 L23.04855,16.0899 C22.75005,16.0899 22.50855,15.8484 22.50855,15.5499 C22.50855,15.2499 22.75005,15.0084 23.04855,15.0084 L25.50855,15.0084 L25.50855,12.5499 C25.50855,12.2499 25.75005,12.0084 26.04855,12.0084 Z M35.04855,6.0084 C35.34705,6.0084 35.58855,6.2499 35.58855,6.5499 L35.58855,9.0084 L38.04855,9.0084 C38.34705,9.0084 38.58855,9.2499 38.58855,9.5499 C38.58855,9.8484 38.34705,10.0899 38.04855,10.0899 L35.58855,10.0894 L35.58855,12.5499 C35.58855,12.8484 35.34705,13.0899 35.04855,13.0899 C34.75005,13.0899 34.50855,12.8484 34.50855,12.5499 L34.50855,10.0894 L32.04855,10.0899 C31.75005,10.0899 31.50855,9.8484 31.50855,9.5499 C31.50855,9.2499 31.75005,9.0084 32.04855,9.0084 L34.50855,9.0084 L34.50855,6.5499 C34.50855,6.2499 34.75005,6.0084 35.04855,6.0084 Z" id="Fill-15" fill="#FDD13A"></path>
                    <path d="M20.0412,5.63235 C10.3062,6.36735 2.5797,14.60085 2.5797,24.53835 C2.5797,34.99485 11.0877,43.50135 21.5457,43.50135 C26.4462,43.50135 31.0197,41.66685 34.5552,38.30985 C24.0042,37.74435 15.5952,28.98135 15.5952,18.29235 C15.5952,13.61385 17.1657,9.16485 20.0412,5.63235 M21.5457,44.58285 C10.4922,44.58285 1.4997,35.59035 1.4997,24.53835 C1.4997,13.59435 10.3677,4.60485 21.2667,4.49985 L21.2712,4.49985 C21.4857,4.49985 21.6792,4.62585 21.7647,4.82235 C21.8532,5.02035 21.8142,5.24985 21.6672,5.40885 C18.4482,8.87685 16.6737,13.45335 16.6737,18.29235 C16.6737,28.75035 25.1832,37.25835 35.6397,37.25835 C35.8542,37.25835 36.1437,37.38135 36.2292,37.57935 C36.3162,37.77585 36.3702,37.99935 36.2247,38.15835 C32.4342,42.23985 27.0837,44.58285 21.5457,44.58285" id="Fill-1" fill="#F3F3F3"></path>
                </g>
            </g>
        </g>
    </g>
</svg>