<?xml version="1.0" encoding="UTF-8"?>
<svg width="41px" height="41px" viewBox="0 0 41 41" version="1.1" xmlns="http://www.w3.org/2000/svg" xmlns:xlink="http://www.w3.org/1999/xlink">
    <!-- Generator: Sketch 57.1 (83088) - https://sketch.com -->
    <title>clear-day</title>
    <desc>Created with Sketch.</desc>
    <g id="Page-1" stroke="none" stroke-width="1" fill="none" fill-rule="evenodd">
        <g id="weather-icons" transform="translate(-199.000000, -111.000000)" fill="#FDD13A">
            <g id="clear-day" transform="translate(195.000000, 107.000000)">
                <g id="pictograms/weather/sunny">
                    <path d="M24.53985,38.99955 C24.83835,38.99955 25.07985,39.24105 25.07985,39.54105 L25.07985,44.04105 C25.07985,44.33955 24.83835,44.58105 24.53985,44.58105 C24.24135,44.58105 23.99985,44.33955 23.99985,44.04105 L23.99985,39.54105 C23.99985,39.24105 24.24135,38.99955 24.53985,38.99955 Z M14.31375,34.76565 C14.52525,34.97565 14.52525,35.31915 14.31375,35.52915 L11.13225,38.71215 C11.02725,38.81715 10.88925,38.86965 10.75125,38.86965 C10.61325,38.86965 10.47525,38.81715 10.37025,38.71215 C10.15875,38.50065 10.15875,38.15715 10.37025,37.94715 L13.55175,34.76565 C13.76175,34.55415 14.10375,34.55415 14.31375,34.76565 Z M35.5278,34.76565 L38.7093,37.94715 C38.9208,38.15715 38.9208,38.50065 38.7093,38.71215 C38.6043,38.81715 38.4663,38.86965 38.3283,38.86965 C38.1903,38.86965 38.0523,38.81715 37.9473,38.71215 L34.7643,35.52915 C34.5528,35.31915 34.5528,34.97565 34.7643,34.76565 C34.9758,34.55415 35.3163,34.55415 35.5278,34.76565 Z M9.53985,23.99955 C9.83835,23.99955 10.07985,24.24105 10.07985,24.54105 C10.07985,24.83955 9.83835,25.08105 9.53985,25.08105 L5.03985,25.08105 C4.74135,25.08105 4.49985,24.83955 4.49985,24.54105 C4.49985,24.24105 4.74135,23.99955 5.03985,23.99955 L9.53985,23.99955 Z M44.03985,23.99955 C44.33835,23.99955 44.57985,24.24105 44.57985,24.54105 C44.57985,24.83955 44.33835,25.08105 44.03985,25.08105 L39.53985,25.08105 C39.24135,25.08105 38.99985,24.83955 38.99985,24.54105 C38.99985,24.24105 39.24135,23.99955 39.53985,23.99955 L44.03985,23.99955 Z M38.71005,10.3701 C38.92155,10.5801 38.92155,10.9236 38.71005,11.1336 L35.52705,14.3181 C35.42205,14.4231 35.28405,14.4756 35.14605,14.4756 C35.00805,14.4756 34.87005,14.4231 34.76505,14.3181 C34.55355,14.1066 34.55355,13.7631 34.76505,13.5531 L37.94655,10.3701 C38.15805,10.1586 38.49855,10.1586 38.71005,10.3701 Z M11.1324,10.3701 L14.3139,13.5531 C14.5254,13.7631 14.5254,14.1066 14.3139,14.3181 C14.2089,14.4231 14.0709,14.4756 13.9329,14.4756 C13.7949,14.4756 13.6569,14.4231 13.5519,14.3181 L10.3704,11.1336 C10.1589,10.9236 10.1589,10.5801 10.3704,10.3701 C10.5804,10.1586 10.9224,10.1586 11.1324,10.3701 Z M24.53985,4.49955 C24.83835,4.49955 25.07985,4.74105 25.07985,5.04105 L25.07985,9.54105 C25.07985,9.83955 24.83835,10.08105 24.53985,10.08105 C24.24135,10.08105 23.99985,9.83955 23.99985,9.54105 L23.99985,5.04105 C23.99985,4.74105 24.24135,4.49955 24.53985,4.49955 Z" id="Fill-19"></path>
                    <path d="M24.53985,14.58105 C19.04835,14.58105 14.57985,19.04955 14.57985,24.54105 C14.57985,30.03255 19.04835,34.49955 24.53985,34.49955 C30.03135,34.49955 34.49985,30.03255 34.49985,24.54105 C34.49985,19.04955 30.03135,14.58105 24.53985,14.58105 M24.53985,35.58105 C18.45285,35.58105 13.49985,30.62805 13.49985,24.54105 C13.49985,18.45255 18.45285,13.49955 24.53985,13.49955 C30.62685,13.49955 35.57985,18.45255 35.57985,24.54105 C35.57985,30.62805 30.62685,35.58105 24.53985,35.58105" id="Fill-1"></path>
                </g>
            </g>
        </g>
    </g>
</svg>