<?xml version="1.0" encoding="UTF-8"?>
<svg width="47px" height="38px" viewBox="0 0 47 38" version="1.1" xmlns="http://www.w3.org/2000/svg" xmlns:xlink="http://www.w3.org/1999/xlink">
    <!-- Generator: Sketch 57.1 (83088) - https://sketch.com -->
    <title>partly-cloudy-night</title>
    <desc>Created with Sketch.</desc>
    <g id="Page-1" stroke="none" stroke-width="1" fill="none" fill-rule="evenodd">
        <g id="weather-icons" transform="translate(-402.000000, -443.000000)">
            <g id="partly-cloudy-night" transform="translate(401.000000, 437.000000)">
                <g id="pictograms/weather/partly-foggy">
                    <path d="M8.9883,17.57955 C5.4558,17.57955 2.5818,20.47155 2.5818,24.02655 C2.5818,27.44055 5.2773,29.95155 8.9958,29.99955 L38.6808,29.99955 C43.0638,29.95305 46.5003,26.61405 46.5003,22.39905 C46.5003,18.08805 42.9933,14.57955 38.6808,14.57955 C37.7253,14.57955 36.5508,14.75205 35.8248,14.99955 C35.5458,15.09855 35.2518,14.95455 35.1453,14.68455 C33.3768,10.13655 29.0703,7.07955 24.4308,7.07955 C18.6873,7.07955 13.5498,11.98305 12.9798,18.00855 C12.9618,18.19155 12.8538,18.35355 12.6918,18.43755 C12.5283,18.52155 12.3333,18.51705 12.1743,18.42705 C11.2038,17.87205 10.1013,17.57955 8.9883,17.57955 L8.9883,17.57955 Z M8.9883,31.07955 C4.6458,31.02405 1.5003,28.05705 1.5003,24.02655 C1.5003,19.87605 4.8588,16.49955 8.9883,16.49955 C10.0233,16.49955 11.0523,16.71705 12.0018,17.13405 C12.9723,10.92705 18.3948,5.99955 24.4308,5.99955 C29.3523,5.99955 33.9288,9.12855 35.9643,13.83255 C36.8613,13.60455 37.9278,13.49955 38.6808,13.49955 C43.5873,13.49955 47.5818,17.49255 47.5818,22.39905 C47.5818,27.21255 43.6743,31.02555 38.6868,31.07955 L8.9883,31.07955 Z" id="Fill-1" fill="#20D5D2"></path>
                    <path d="M29.0406,38.57955 L2.0406,38.57955 C1.7421,38.57955 1.5006,38.33805 1.5006,38.03955 C1.5006,37.74105 1.7421,37.49955 2.0406,37.49955 L29.0406,37.49955 C29.3391,37.49955 29.5806,37.74105 29.5806,38.03955 C29.5806,38.33805 29.3391,38.57955 29.0406,38.57955" id="Fill-4" fill="#6CCAFF"></path>
                    <path d="M42.5406,43.07955 L15.5406,43.07955 C15.2421,43.07955 15.0006,42.83805 15.0006,42.53955 C15.0006,42.24105 15.2421,41.99955 15.5406,41.99955 L42.5406,41.99955 C42.8391,41.99955 43.0806,42.24105 43.0806,42.53955 C43.0806,42.83805 42.8391,43.07955 42.5406,43.07955" id="Fill-6" fill="#6CCAFF"></path>
                </g>
            </g>
        </g>
    </g>
</svg>